#N canvas 1097 466 763 648 12;
#X declare -lib pdlua;
#X obj 79 233 larray.lookup;
#X msg 223 30 [[1 2 3][4 5 6][7 8 9]];
#X floatatom 79 197 5 0 0 0 - - - 0;
#X obj 218 249 declare -lib pdlua;
#X obj 173 76 larray.len;
#X obj 71 29 tgl 20 0 empty empty empty 0 -10 0 12 #fcfcfc #000000 #000000 0 1;
#X obj 71 54 metro 1000;
#X obj 71 79 f;
#X obj 110 80 + 1;
#X obj 79 142 % 10;
#X obj 517 329 larray.print;
#X msg 432 145 [[1 2 3][4 5 6][7 8 9]];
#X connect 1 0 0 1;
#X connect 1 0 4 0;
#X connect 2 0 0 0;
#X connect 4 0 9 1;
#X connect 5 0 6 0;
#X connect 6 0 7 0;
#X connect 7 0 8 0;
#X connect 7 0 9 0;
#X connect 8 0 7 1;
#X connect 9 0 2 0;
#X connect 11 0 10 0;
