#N canvas 1378 241 739 795 12;
#X declare -lib pdlua;
#X obj 108 79 declare -lib pdlua;
#X obj 171 177 luacsv;
#X obj 150 120 bng 20 250 50 0 empty empty empty 0 -10 0 12 #fcfcfc #000000 #000000;
#X obj 270 65 bng 20 250 50 0 empty empty empty 0 -10 0 12 #fcfcfc #000000 #000000;
#X obj 270 90 openpanel;
#X msg 279 150 read \$1;
#X msg 198 144 stats;
#X obj 289 242 print dx;
#X msg 55 228 next;
#X obj 197 246 print sx;
#X obj 92 377 print;
#X obj 153 321 unpack s f s s;
#X floatatom 179 396 0 0 0 0 - - - 0;
#X msg 411 417 delimiter semicolon;
#X msg 59 285 reset;
#X connect 1 0 9 0;
#X connect 1 1 7 0;
#X connect 2 0 1 0;
#X connect 3 0 4 0;
#X connect 4 0 5 0;
#X connect 5 0 1 0;
#X connect 6 0 1 0;
#X connect 8 0 1 0;
#X connect 11 0 10 0;
#X connect 11 1 12 0;
#X connect 13 0 1 0;
#X connect 14 0 1 0;
