#N canvas 1077 448 1179 985 12;
#X declare -lib pdlua;
#X obj 13 12 declare -lib pdlua;
#X obj 160 250 larray;
#X msg 233 135 1 3 5 7 9;
#X msg 160 40 [[1 2 3] 4.5 5 6];
#X msg 181 74 a 2 [ 5 6 gatto ] 13;
#X obj 76 520 print TASTOMA;
#X obj 160 331 decode_array;
#X obj 160 356 print DECODED;
#X obj 160 291 print OUTPUT;
#X msg 321 161 [[ a b c d e ]];
#X msg 216 107 [a b c d e];
#X msg 319 130 1 [2 3 4 5 6];
#X msg 306 193 [[1 2 3][4 5 6]];
#X msg 15 79 [ a [ 5 gatto ] 13];
#X msg 307 239 [[ 1 2 [ 3 ]] [ 4 5 6 ]];
#X msg 307 269 [ 1 2 [ 3 ]] [ 4 5 6 ];
#X msg 365 41 [1 3 5 7 9];
#X connect 1 0 8 0;
#X connect 2 0 1 0;
#X connect 3 0 1 0;
#X connect 4 0 1 0;
#X connect 6 0 7 0;
#X connect 9 0 1 0;
#X connect 10 0 1 0;
#X connect 11 0 1 0;
#X connect 12 0 1 0;
#X connect 13 0 1 0;
#X connect 14 0 1 0;
#X connect 15 0 1 0;
#X connect 16 0 1 0;
