#N canvas 1077 448 1179 985 12;
#X declare -lib pdlua;
#X declare -path ./;
#X obj 125 24 declare -lib pdlua;
#X obj 148 320 larray;
#X msg 221 205 1 3 5 7 9;
#X msg 148 110 [[1 2 3] 4.5 5 6];
#X obj 133 72 declare -path ./;
#X msg 169 144 a 2 [ 5 6 gatto ] 13;
#X obj 76 520 print TASTOMA;
#X obj 148 401 decode_array;
#X obj 148 426 print DECODED;
#X obj 148 361 print OUTPUT;
#X msg 315 216 [[ a b c d e ]];
#X msg 204 177 [a b c d e];
#X msg 366 119 1 [2 3 4 5 6];
#X msg 294 263 [[1 2 3][4 5 6]];
#X msg 17 148 [ a [ 5 gatto ] 13];
#X connect 1 0 9 0;
#X connect 2 0 1 0;
#X connect 3 0 1 0;
#X connect 5 0 1 0;
#X connect 7 0 8 0;
#X connect 10 0 1 0;
#X connect 11 0 1 0;
#X connect 12 0 1 0;
#X connect 13 0 1 0;
#X connect 14 0 1 0;
