#N canvas 798 56 1065 690 12;
#X declare -lib pdlua;
#X obj 40 46 declare -lib pdlua;
#X obj 126 252 larray.read_csv @sep comma @output larray, f 27;
#X obj 126 122 bng 20 250 50 0 empty empty empty 0 -10 0 12 #fcfcfc #000000 #000000;
#X obj 126 147 openpanel;
#X msg 126 172 read \$1;
#X obj 136 202 print;
#X obj 312 318 print;
#X msg 275 167 headers;
#X msg 300 198 col Username;
#X obj 126 292 print;
#X connect 1 0 9 0;
#X connect 1 1 6 0;
#X connect 2 0 3 0;
#X connect 3 0 4 0;
#X connect 4 0 5 0;
#X connect 4 0 1 0;
#X connect 7 0 1 0;
#X connect 8 0 1 0;
