#N canvas 903 566 1145 760 12;
#X declare -lib pdlua;
#X obj 47 37 declare -lib pdlua;
#X obj 47 109 larray.template;
#X obj 57 119 larray.template;
#X obj 76 139 larray.template;
#X obj 86 149 larray.template;
#X obj 107 179 larray.template;
#X obj 117 189 larray.template;
#X obj 136 209 larray.template;
#X obj 146 219 larray.template;
#X obj 192 117 larray.template;
#X obj 202 127 larray.template;
#X obj 221 147 larray.template;
#X obj 231 157 larray.template;
#X obj 252 187 larray.template;
#X obj 262 197 larray.template;
#X obj 281 217 larray.template;
#X obj 291 227 larray.template;
#X obj 367 119 larray.template;
#X obj 377 129 larray.template;
#X obj 396 149 larray.template;
#X obj 406 159 larray.template;
#X obj 427 189 larray.template;
#X obj 437 199 larray.template;
#X obj 456 219 larray.template;
#X obj 466 229 larray.template;
#X obj 512 127 larray.template;
#X obj 522 137 larray.template;
#X obj 541 157 larray.template;
#X obj 551 167 larray.template;
#X obj 572 197 larray.template;
#X obj 582 207 larray.template;
#X obj 601 227 larray.template;
#X obj 611 237 larray.template;
#X obj 57 259 larray.template;
#X obj 67 269 larray.template;
#X obj 86 289 larray.template;
#X obj 96 299 larray.template;
#X obj 117 329 larray.template;
#X obj 127 339 larray.template;
#X obj 146 359 larray.template;
#X obj 156 369 larray.template;
#X obj 202 267 larray.template;
#X obj 212 277 larray.template;
#X obj 231 297 larray.template;
#X obj 241 307 larray.template;
#X obj 262 337 larray.template;
#X obj 272 347 larray.template;
#X obj 291 367 larray.template;
#X obj 301 377 larray.template;
#X obj 377 269 larray.template;
#X obj 387 279 larray.template;
#X obj 406 299 larray.template;
#X obj 416 309 larray.template;
#X obj 437 339 larray.template;
#X obj 447 349 larray.template;
#X obj 466 369 larray.template;
#X obj 476 379 larray.template;
#X obj 522 277 larray.template;
#X obj 532 287 larray.template;
#X obj 551 307 larray.template;
#X obj 561 317 larray.template;
#X obj 582 347 larray.template;
#X obj 592 357 larray.template;
#X obj 611 377 larray.template;
#X obj 621 387 larray.template;
#X obj 57 419 larray.template;
#X obj 67 429 larray.template;
#X obj 86 449 larray.template;
#X obj 96 459 larray.template;
#X obj 117 489 larray.template;
#X obj 127 499 larray.template;
#X obj 146 519 larray.template;
#X obj 156 529 larray.template;
#X obj 202 427 larray.template;
#X obj 212 437 larray.template;
#X obj 231 457 larray.template;
#X obj 241 467 larray.template;
#X obj 262 497 larray.template;
#X obj 272 507 larray.template;
#X obj 291 527 larray.template;
#X obj 301 537 larray.template;
#X obj 377 429 larray.template;
#X obj 387 439 larray.template;
#X obj 406 459 larray.template;
#X obj 416 469 larray.template;
#X obj 437 499 larray.template;
#X obj 447 509 larray.template;
#X obj 466 529 larray.template;
#X obj 476 539 larray.template;
#X obj 522 437 larray.template;
#X obj 532 447 larray.template;
#X obj 551 467 larray.template;
#X obj 561 477 larray.template;
#X obj 582 507 larray.template;
#X obj 592 517 larray.template;
#X obj 611 537 larray.template;
#X obj 621 547 larray.template;
#X obj 67 569 larray.template;
#X obj 77 579 larray.template;
#X obj 96 599 larray.template;
#X obj 106 609 larray.template;
#X obj 127 639 larray.template;
#X obj 137 649 larray.template;
#X obj 156 669 larray.template;
#X obj 166 679 larray.template;
#X obj 212 577 larray.template;
#X obj 222 587 larray.template;
#X obj 241 607 larray.template;
#X obj 251 617 larray.template;
#X obj 272 647 larray.template;
#X obj 282 657 larray.template;
#X obj 301 677 larray.template;
#X obj 311 687 larray.template;
#X obj 387 579 larray.template;
#X obj 397 589 larray.template;
#X obj 416 609 larray.template;
#X obj 426 619 larray.template;
#X obj 447 649 larray.template;
#X obj 457 659 larray.template;
#X obj 476 679 larray.template;
#X obj 486 689 larray.template;
#X obj 532 587 larray.template;
#X obj 542 597 larray.template;
#X obj 561 617 larray.template;
#X obj 571 627 larray.template;
#X obj 592 657 larray.template;
#X obj 602 667 larray.template;
#X obj 621 687 larray.template;
#X obj 631 697 larray.template;
#X msg 531 24 [ 1 3 5 7 9 11 ];
#X connect 129 0 1 0;
#X connect 129 0 9 0;
#X connect 129 0 17 0;
#X connect 129 0 25 0;
#X connect 129 0 33 0;
#X connect 129 0 41 0;
#X connect 129 0 21 0;
#X connect 129 0 128 0;
#X connect 129 0 127 0;
#X connect 129 0 126 0;
#X connect 129 0 125 0;
#X connect 129 0 124 0;
#X connect 129 0 123 0;
#X connect 129 0 122 0;
#X connect 129 0 121 0;
#X connect 129 0 120 0;
#X connect 129 0 119 0;
#X connect 129 0 118 0;
#X connect 129 0 117 0;
#X connect 129 0 116 0;
#X connect 129 0 115 0;
#X connect 129 0 114 0;
#X connect 129 0 113 0;
#X connect 129 0 112 0;
#X connect 129 0 111 0;
#X connect 129 0 110 0;
#X connect 129 0 109 0;
#X connect 129 0 108 0;
#X connect 129 0 107 0;
#X connect 129 0 106 0;
#X connect 129 0 105 0;
#X connect 129 0 104 0;
#X connect 129 0 103 0;
#X connect 129 0 102 0;
#X connect 129 0 101 0;
#X connect 129 0 100 0;
#X connect 129 0 99 0;
#X connect 129 0 98 0;
#X connect 129 0 97 0;
#X connect 129 0 96 0;
#X connect 129 0 95 0;
#X connect 129 0 94 0;
#X connect 129 0 93 0;
#X connect 129 0 92 0;
#X connect 129 0 91 0;
#X connect 129 0 90 0;
#X connect 129 0 89 0;
#X connect 129 0 88 0;
#X connect 129 0 87 0;
#X connect 129 0 86 0;
#X connect 129 0 85 0;
#X connect 129 0 84 0;
#X connect 129 0 83 0;
#X connect 129 0 82 0;
#X connect 129 0 81 0;
#X connect 129 0 80 0;
#X connect 129 0 79 0;
#X connect 129 0 78 0;
#X connect 129 0 77 0;
#X connect 129 0 76 0;
#X connect 129 0 75 0;
#X connect 129 0 74 0;
#X connect 129 0 73 0;
#X connect 129 0 72 0;
#X connect 129 0 71 0;
#X connect 129 0 70 0;
#X connect 129 0 69 0;
#X connect 129 0 68 0;
#X connect 129 0 67 0;
#X connect 129 0 66 0;
#X connect 129 0 65 0;
#X connect 129 0 64 0;
#X connect 129 0 63 0;
#X connect 129 0 62 0;
#X connect 129 0 61 0;
#X connect 129 0 60 0;
#X connect 129 0 59 0;
#X connect 129 0 58 0;
#X connect 129 0 57 0;
#X connect 129 0 56 0;
#X connect 129 0 55 0;
#X connect 129 0 54 0;
#X connect 129 0 53 0;
#X connect 129 0 52 0;
#X connect 129 0 51 0;
#X connect 129 0 50 0;
#X connect 129 0 49 0;
#X connect 129 0 48 0;
#X connect 129 0 47 0;
#X connect 129 0 46 0;
#X connect 129 0 45 0;
#X connect 129 0 44 0;
#X connect 129 0 43 0;
#X connect 129 0 42 0;
#X connect 129 0 40 0;
#X connect 129 0 39 0;
#X connect 129 0 38 0;
#X connect 129 0 37 0;
#X connect 129 0 36 0;
#X connect 129 0 35 0;
#X connect 129 0 34 0;
#X connect 129 0 32 0;
#X connect 129 0 31 0;
#X connect 129 0 30 0;
#X connect 129 0 29 0;
#X connect 129 0 28 0;
#X connect 129 0 27 0;
#X connect 129 0 26 0;
#X connect 129 0 24 0;
#X connect 129 0 23 0;
#X connect 129 0 22 0;
#X connect 129 0 20 0;
#X connect 129 0 19 0;
#X connect 129 0 18 0;
#X connect 129 0 16 0;
#X connect 129 0 15 0;
#X connect 129 0 14 0;
#X connect 129 0 13 0;
#X connect 129 0 12 0;
#X connect 129 0 11 0;
#X connect 129 0 10 0;
#X connect 129 0 8 0;
#X connect 129 0 7 0;
#X connect 129 0 6 0;
#X connect 129 0 5 0;
#X connect 129 0 4 0;
#X connect 129 0 3 0;
#X connect 129 0 2 0;
