#N canvas 1235 470 576 540 12;
#X declare -lib pdlua;
#X obj 131 74 declare -lib pdlua;
#X obj 177 182 larray.template;
#X floatatom 342 116 5 0 0 0 - - - 0;
#X obj 342 140 int;
#X msg 190 136 [ 1 [3] 5 [7 9] ];
#X msg 50 135 1 3 5;
#X obj 197 302 larray.template;
#X obj 177 207 print;
#X msg 250 258 ltable crko3147boyj3685;
#X obj 208 388 larray.template;
#X connect 1 0 7 0;
#X connect 1 0 6 0;
#X connect 2 0 3 0;
#X connect 3 0 1 0;
#X connect 4 0 1 0;
#X connect 5 0 1 0;
#X connect 6 0 9 0;
#X connect 8 0 6 0;
