#N canvas 1235 470 576 540 12;
#X declare -lib pdlua;
#X obj 131 74 declare -lib pdlua;
#X floatatom 466 189 5 0 0 0 - - - 0;
#X obj 466 213 int;
#X msg 50 135 1 3 5;
#X obj 342 205 bng 20 250 50 0 empty empty empty 0 -10 0 12 #fcfcfc #000000 #000000;
#X obj 304 318 bng 20 250 50 0 empty empty empty 0 -10 0 12 #fcfcfc #000000 #000000;
#X floatatom 339 392 5 0 0 0 - - - 0;
#X msg 35 273 [1 [3] 5 [7 9] ];
#X obj 393 331 print PRINT;
#X msg 190 136 larray [ 1 [3] 5 [7 9] ];
#X obj 190 469 larray.print TASTOMA;
#X obj 190 264 larray.template @output larray;
#X connect 1 0 2 0;
#X connect 2 0 11 0;
#X connect 3 0 11 0;
#X connect 4 0 11 0;
#X connect 5 0 10 0;
#X connect 6 0 10 0;
#X connect 7 0 10 0;
#X connect 9 0 11 0;
#X connect 11 0 10 0;
