#N canvas 1235 470 576 540 12;
#X declare -lib pdlua;
#X obj 131 74 declare -lib pdlua;
#X floatatom 342 116 5 0 0 0 - - - 0;
#X obj 342 140 int;
#X msg 190 136 [ 1 [3] 5 [7 9] ];
#X msg 50 135 1 3 5;
#X obj 190 343 print;
#X obj 190 264 larray.template;
#X connect 1 0 2 0;
#X connect 2 0 6 0;
#X connect 3 0 6 0;
#X connect 4 0 6 0;
#X connect 6 0 5 0;
