#N canvas 1415 350 450 586 12;
#X declare -lib pdlua;
#X obj 121 66 declare -lib pdlua;
#X obj 137 162 globalout;
#X obj 137 125 bng 20 250 50 0 empty empty empty 0 -10 0 12 #fcfcfc #000000 #000000;
#X obj 244 206 globalin;
#X obj 244 174 bng 20 250 50 0 empty empty empty 0 -10 0 12 #fcfcfc #000000 #000000;
#X obj 244 249 print;
#X connect 1 0 3 0;
#X connect 2 0 1 0;
#X connect 3 0 5 0;
#X connect 4 0 3 0;
