#N canvas 656 12 1329 827 12;
#X declare -lib pdlua;
#X obj 83 81 declare -lib pdlua;
#X obj 261 305 sqlite3;
#X obj 261 109 bng 20 250 50 0 empty empty empty 0 -10 0 12 #fcfcfc #000000 #000000;
#X obj 261 139 openpanel;
#X obj 104 195 bng 20 250 50 0 empty empty empty 0 -10 0 12 #fcfcfc #000000 #000000;
#X msg 104 250 new \$1;
#X obj 104 225 savepanel;
#X msg 261 164 open \$1;
#X obj 261 330 print;
#X msg 305 235 query select col3 from test;
#X msg 279 198 query SELECT * FROM TEST WHERE COL3 = 9;
#X connect 1 0 8 0;
#X connect 2 0 3 0;
#X connect 3 0 7 0;
#X connect 4 0 6 0;
#X connect 5 0 1 0;
#X connect 6 0 5 0;
#X connect 7 0 1 0;
#X connect 9 0 1 0;
#X connect 10 0 1 0;
